<?xml version="1.0" standalone="no"?>
<!DOCTYPE svg PUBLIC "-//W3C//DTD SVG 20010904//EN"
 "http://www.w3.org/TR/2001/REC-SVG-20010904/DTD/svg10.dtd">
<svg version="1.0" xmlns="http://www.w3.org/2000/svg"
 width="160.000000pt" height="160.000000pt" viewBox="0 0 160.000000 160.000000"
 preserveAspectRatio="xMidYMid meet">
<metadata>
Created by potrace 1.14, written by Peter Selinger 2001-2017
</metadata>
<g transform="translate(0.000000,160.000000) scale(0.100000,-0.100000)"
fill="#000000" stroke="none">
<path d="M683 1548 c-63 -12 -137 -31 -153 -39 -8 -4 -37 -17 -63 -28 l-48
-21 -32 24 c-86 64 -195 40 -274 -61 -68 -87 -68 -166 0 -240 18 -20 19 -24 4
-46 -8 -13 -27 -61 -43 -108 -25 -75 -28 -99 -28 -219 -1 -156 13 -219 74
-345 42 -86 76 -132 154 -208 220 -216 562 -271 844 -137 l82 39 51 -31 c63
-40 109 -41 173 -3 134 78 168 225 73 313 l-25 23 20 52 c66 170 72 308 23
509 -10 44 -62 148 -101 204 -117 168 -281 275 -479 315 -70 13 -197 17 -252
7z m-358 -92 c19 -8 35 -19 35 -23 0 -4 -31 -36 -70 -71 -38 -34 -84 -83 -101
-107 l-33 -45 -18 27 c-36 55 -17 129 49 190 31 28 50 37 91 42 7 0 28 -6 47
-13z m1172 -1134 c10 -74 -55 -150 -142 -166 -29 -6 -105 19 -105 34 0 4 20
24 45 45 25 20 65 63 88 94 64 86 59 82 85 57 14 -13 26 -40 29 -64z"/>
</g>
</svg>
